# xmcd
#
# Track frame offsets: 
#        150
#        16254
#        31342
#        49826
#        67184
#        81927
#        99024
#        119272
#        138332
#        154735
#        171692
#        187999
#        205522
#        222117
#        242117
#
# Disc length: 3421 seconds
#
# Revision: 0
# Processed by: cddbd v1.5.2PL0 Copyright (c) Steve Scherf et al.
# Submitted via: ExactAudioCopy v1.0b4
#
DISCID=ca0d5b0f
DTITLE=Good Morning Blues - "but I just couldn't sleep, 'cause blues w
DTITLE=as on my mind"
DYEAR=2012
DGENRE=Blues
TTITLE0=Grow to old
TTITLE1=Hound dog
TTITLE2=Up the line
TTITLE3=I want a little girl
TTITLE4=Riding in the moonlight
TTITLE5=Jumping Jack Flash
TTITLE6=Blue light boogie
TTITLE7=The weasil
TTITLE8=Kidney stew
TTITLE9=Cypress groove blues
TTITLE10=Unchain my heart
TTITLE11=Rock me baby
TTITLE12=All the time in the world
TTITLE13=Mary Anne
TTITLE14=At last
EXTD=
EXTT0=
EXTT1=
EXTT2=
EXTT3=
EXTT4=
EXTT5=
EXTT6=
EXTT7=
EXTT8=
EXTT9=
EXTT10=
EXTT11=
EXTT12=
EXTT13=
EXTT14=
PLAYORDER=
